<?xml version="1.0" encoding="UTF-8" standalone="no"?>
<svg viewBox="0 0 1426 406"><defs></defs><g data-name="Gruppe 1428"><g data-name="Gruppe 1427"><path d="M627 125q0 21-16 33t-42 12q-29 0-45-7v-19a118 118 0 0022 7 115 115 0 0024 3q19 0 28-8t10-20q0-8-4-14t-11-10l-24-10q-23-8-33-19t-10-30q0-18 15-30t37-11a111 111 0 0145 9l-6 17q-20-9-39-9-15 0-24 7t-8 18q0 8 3 14t10 10l23 10q26 9 35 19t10 28zm136-18q0 30-15 46t-41 17q-17 0-29-7a51 51 0 01-20-23q-7-14-7-33 0-30 15-47t41-17q26 0 41 17t15 47zm-93 0q0 23 10 35t27 13q18 0 28-13t9-35q0-24-9-36t-28-12q-18 0-28 12t-9 36zm210 61V89q0-15-7-23t-21-7q-20 0-28 10t-9 35v64h-19V46h15l3 16h1a38 38 0 0116-14 52 52 0 0123-5q22 0 33 11t11 34v80zm75 0h-18V46h18zM935 12q0-6 3-9a12 12 0 0116 0q3 3 3 9t-3 10a11 11 0 01-16 0q-3-3-3-10zm204 74q0 31-13 52a63 63 0 01-35 28l39 41h-28l-32-37h-6q-36 0-56-22t-19-62q0-40 19-62t56-22q36 0 55 22t20 62zm-130 0q0 33 14 50t41 18q27 0 41-17t14-51q0-33-14-50t-41-17q-27 0-41 17t-14 50zM627 359q0 22-16 34t-42 12q-29 0-45-8v-18a118 118 0 0022 7 115 115 0 0024 2q19 0 28-7t10-20q0-8-4-14t-11-10l-24-10q-23-8-33-20t-10-29q0-19 14-30t38-11a111 111 0 0145 9l-6 16c-14-5-39-8-39-8s-18 2-24 6-9 11-9 18q0 9 4 14t10 10q8 5 23 10 26 9 35 20t10 27zm82 46q-27 0-42-17t-16-46q0-29 14-47t40-17q23 0 36 15t13 40v12h-84q1 21 11 33t29 11a99 99 0 0039-9v17a98 98 0 01-18 6 105 105 0 01-22 2zm-5-111q-14 0-23 9t-11 27h65q0-18-8-27t-23-9zm138-16a73 73 0 0115 1l-3 18a63 63 0 00-13-2q-15 0-26 12t-10 30v66h-19V280h15l3 23q7-12 17-19a37 37 0 0121-6zm64 125l-46-123h20l14 40 12 33 11 33h1l7-25 30-81h20l-47 123zm107 0h-19V280h19zm-20-156q0-6 3-9a12 12 0 0115 0q4 3 4 9t-4 9a11 11 0 01-15 0q-3-3-3-9zm108 158q-26 0-41-16t-15-47q0-30 15-47t42-17a84 84 0 0118 2 58 58 0 0114 4l-6 16a87 87 0 00-13-4 60 60 0 00-13-2q-37 0-37 48 0 23 9 35t27 12a83 83 0 0031-7v17q-12 6-31 6zm112 0q-27 0-43-17t-16-46q0-29 15-47t39-17q23 0 37 15t13 40v12h-84q0 21 10 33t30 11a99 99 0 0039-9v17a98 98 0 01-19 6 105 105 0 01-21 2zm-5-111q-15 0-24 9t-10 27h64q0-18-8-27t-22-9zm161 75q0 17-13 27t-36 9q-24 0-38-8v-17a92 92 0 0019 7 79 79 0 0020 3q14 0 22-5t8-14q0-7-6-12t-25-12q-17-7-24-12a33 33 0 01-11-10 28 28 0 01-3-15q0-15 12-23t33-9a98 98 0 0139 8l-7 15q-18-7-33-7-13 0-20 4t-7 11a14 14 0 003 8 25 25 0 008 7l22 9q21 8 29 16t8 20zm21 34h-3v-22h-8v-3h19v3h-8zm22 0l-8-22v22h-2v-25h4l8 20 8-20h4v25h-3v-16-6l-8 22z" data-name="Pfad 848"></path><g data-name="Gruppe 1014"><path fill="#209a94" d="M162 334L57 406V255h151z" data-name="Pfad 864"></path><path fill="#2f5daa" d="M348 152H197l30-60L348 1z" data-name="Pfad 863"></path><path fill="#13ccc4" d="M405 58v291a56 56 0 01-57 57H57z" data-name="Pfad 840"></path><path fill="#2c94e2" d="M0 349V57A56 56 0 0156 1h292z" data-name="Pfad 843"></path></g></g></g></svg>